<?xml version="1.0" encoding="utf-8"?>
<!-- Generator: Adobe Illustrator 23.0.6, SVG Export Plug-In . SVG Version: 6.00 Build 0)  -->
<svg version="1.1" id="Capa_1" xmlns="http://www.w3.org/2000/svg" xmlns:xlink="http://www.w3.org/1999/xlink" x="0px" y="0px"
	 viewBox="0 0 75.1 105" style="enable-background:new 0 0 75.1 105;" xml:space="preserve">
<style type="text/css">
	.st0{fill:#FF8F71;}
	.st1{fill:#FFCE71;}
</style>
<g>
	<path class="st0" d="M39.2,7.5C22.8,7.2,9.4,20,8.6,36.4l29,21.5l31-18.5C69.3,22.5,56.1,7.9,39.2,7.5L39.2,7.5z"/>
	<path class="st1" d="M8.6,36.4L6.3,81c-0.4,8.3,6,15.3,14.2,15.7l30,1.5c8.3,0.4,15.3-6,15.7-14.2l2.2-44.6L8.6,36.4z"/>
</g>
<path d="M75.1,37.9C75.1,37.9,75.1,37.9,75.1,37.9C75.2,17,58.1-0.5,36.7,0C16.5,0.5,0.2,17.1,0.1,37.7c0,0,0,0,0,0L0,82.4
	c0,6,2.3,11.7,6.5,15.9c4.2,4.3,9.9,6.6,15.9,6.6l30,0.1c12.4,0,22.5-10,22.6-22.4L75.1,37.9z M37,15c10.2-0.3,18.7,6.4,21.8,15.4
	l-42.5-0.1C19.5,21.3,27.6,15.2,37,15L37,15z M52.5,90l-30-0.1c-4.1,0-7.5-3.4-7.5-7.5l0.1-37.2l45,0.1L60,82.6
	C60,86.7,56.6,90.1,52.5,90L52.5,90z"/>
</svg>
