<?xml version="1.0" encoding="utf-8"?>
<!-- Generator: Adobe Illustrator 23.0.6, SVG Export Plug-In . SVG Version: 6.00 Build 0)  -->
<svg version="1.1" id="Capa_1" xmlns="http://www.w3.org/2000/svg" xmlns:xlink="http://www.w3.org/1999/xlink" x="0px" y="0px"
	 viewBox="0 0 712.9 512" style="enable-background:new 0 0 712.9 512;" xml:space="preserve">
<style type="text/css">
	.st0{fill:#E4E5E5;}
	.st1{fill:#FFBA50;}
	.st2{fill:#C7A87E;}
	.st3{fill:#947C6B;}
	.st4{fill:#000001;}
</style>
<g>
	<path class="st0" d="M394.1,256c-8.9,15.5-25.6,25.9-44.8,25.9c0,14.6-9.9,27-23.4,30.6c43,51.7,320.1-23.7,377-56.5
		c-51-29.4-334-108.2-377-56.5c13.5,3.7,23.4,16,23.4,30.6C368.4,230.1,385.1,240.5,394.1,256z"/>
	<path class="st1" d="M349.3,281.9c19.1,0,35.9-10.4,44.8-25.9c-8.9-15.5-25.6-25.9-44.8-25.9c0-14.6-9.9-26.9-23.4-30.6l-21.4,25.7
		l0,61.5l21.4,25.7C339.4,308.8,349.3,296.5,349.3,281.9z"/>
	<path class="st2" d="M304.5,286.8l0-61.5c-17.6-10.1-41-16.7-65.9-19.4l25.7,96C279.3,298.4,293.1,293.3,304.5,286.8z"/>
	<path class="st3" d="M264.3,301.8l-25.7-96c-25.5-2.8-52.6-1.5-76.9,3.9l25.9,96.6C213.3,308.9,240.4,307.4,264.3,301.8z"/>
	<path class="st2" d="M187.6,306.4l-25.9-96.6c-15.4,3.5-29.7,8.6-41.7,15.5l0,61.5C138.4,297.4,162.4,303.9,187.6,306.4z"/>
	<path class="st1" d="M120,286.8l0-61.5l-21.8-21.8c-6.4,5.6-10.6,15.5-10.6,26.7c-13.8,0-25.9,10.4-32.4,25.9
		c6.5,15.5,18.6,25.9,32.4,25.9c0,11.2,4.2,21.1,10.6,26.7L120,286.8z"/>
	<path class="st0" d="M55.2,256c6.5-15.5,18.6-25.9,32.4-25.9c0-11.2,4.2-21.1,10.6-26.7l-6.1-6.1c-7.2-7.3-19.1-7.3-26.3,0
		l-45.5,45.5c-7.3,7.2-7.3,19.1,0,26.4l45.5,45.5c7.2,7.3,19.1,7.3,26.3,0l6.1-6.1c-6.4-5.6-10.6-15.5-10.6-26.7
		C73.7,281.9,61.7,271.5,55.2,256z"/>
</g>
<g>
	<path class="st4" d="M712.9,256c0-3.6-1.9-6.9-5-8.7c-25.9-14.9-110.2-42.5-194.5-59.8c-45.7-9.4-86.4-14.6-117.5-15.1
		c-40.1-0.7-65.6,6.1-77.7,20.7c0,0,0,0,0,0L302,212.6c-17.2-8.3-38.7-14.1-62-16.7c0,0-0.1,0-0.1,0c-8.7-1-17.7-1.5-26.7-1.5
		c-34.9-0.2-66.9,6.4-91.3,18.5l-16.6-16.6l-6.1-6.1c-5.4-5.4-12.6-8.4-20.2-8.4c-7.7,0-14.8,3-20.2,8.4l-45.5,45.5
		c-5.4,5.4-8.4,12.6-8.4,20.2c0,7.7,3,14.9,8.4,20.3l45.5,45.5c0,0,0,0,0,0c5.4,5.4,12.6,8.4,20.2,8.4c7.7,0,14.8-3,20.2-8.4
		l6.1-6.1l16.6-16.6c24.4,12.1,56.4,18.7,91.3,18.5c18.7-0.1,36.9-2.2,53.4-6c0.1,0,0.3,0,0.4-0.1c0.1,0,0.1,0,0.2-0.1
		c12.8-3,24.7-7.1,34.9-12.1l11.5,13.8l4.8,5.7c0.7,0.9,1.5,1.7,2.3,2.5c13.4,13.4,39,19.5,78.3,18.6c31-0.6,70.9-5.8,115.4-14.9
		c77.3-15.8,162.4-42.4,193.7-60.5C711,262.9,712.9,259.6,712.9,256z M382,256c-7.8,9.9-19.9,15.9-32.7,15.9c-2.7,0-5.2,1.1-7.1,2.9
		c-1.9,1.9-2.9,4.4-2.9,7.1c0,7.7-4.1,14.7-10.4,18.6l-14.4-17.3l0-54.3l14.4-17.3c1.5,0.9,2.8,2,4.1,3.2c4.1,4.1,6.4,9.6,6.4,15.4
		c0,5.5,4.5,10,10,10c11.1,0,21.6,4.3,29.5,12.2C379.9,253.5,381,254.7,382,256z M271.4,289.7l-19.2-71.8
		c15.6,2.8,30.2,7.2,42.3,13.3l0,49.6C287.5,284.3,279.7,287.3,271.4,289.7z M130,280.8l0-49.6c7.4-3.7,15.7-6.8,24.6-9.3l19.4,72.5
		C157.7,291.7,142.6,287.1,130,280.8z M110,229.4l0,53.2L99.5,293c-1.3-3.3-2-7.2-2-11.2c0-2.8-1.1-5.3-2.9-7.1
		c-1.8-1.8-4.3-2.9-7.1-2.9c-6.6,0-11.7-3.7-14.8-6.9c-2.5-2.5-4.7-5.5-6.5-9c5.2-9.9,13.2-15.9,21.3-15.9c5.5,0,10-4.5,10-10
		c0-4,0.7-7.8,2-11.2L110,229.4z M72.8,307.6l-7.1,7.1L72.8,307.6l-45.5-45.5c-1.6-1.6-2.5-3.8-2.5-6.1c0-2.3,0.9-4.5,2.5-6.1
		l45.5-45.5c1.6-1.6,3.8-2.5,6.1-2.5c2.2,0,4.2,0.8,5.8,2.2c-3.1,5-5.3,10.9-6.4,17.2C64.7,224.8,52.7,236,46,252.1
		c-1,2.5-1,5.2,0,7.7c3.2,7.6,7.4,14.1,12.7,19.3c5.8,5.8,12.5,9.8,19.7,11.6c1.1,6.3,3.2,12.2,6.4,17.2c-1.6,1.4-3.6,2.2-5.8,2.2
		C76.6,310.1,74.4,309.2,72.8,307.6z M195.4,296.9l-21.3-79.4c18.2-3,37.7-3.8,56.6-2.4l21.2,79
		C233.8,297.3,214.3,298.2,195.4,296.9z M510.2,305.5c-43.4,8.9-82,13.9-111.8,14.5c-28,0.6-44.2-2.8-53.6-6.6
		c6.7-5.8,11.4-13.5,13.4-22.2c16.5-2.4,31.5-11.6,41.3-25.2l45.6,0c5.5,0,10-4.5,10-10c0-5.5-4.5-10-10-10l-45.6,0
		c-2-2.8-4.2-5.4-6.6-7.8c-9.5-9.5-21.6-15.5-34.7-17.4c-1.7-7.6-5.5-14.5-11.2-20.1c-0.7-0.7-1.4-1.4-2.2-2
		c9.2-3.6,24.7-6.7,50.7-6.2c29.9,0.5,69.2,5.6,113.8,14.7c66.7,13.7,134.8,34.3,170.3,49C644.4,271.1,578.7,291.5,510.2,305.5z"/>
	<path class="st4" d="M463.8,255.9c0,2.8,1.1,5.3,2.9,7.1c1.8,1.8,4.3,2.9,7,2.9l0.2,0c5.5,0,10-4.4,10.1-9.9c0-5.5-4.4-10-9.9-10.1
		l-0.2,0C468.4,246,463.9,250.4,463.8,255.9z"/>
</g>
</svg>
