<?xml version="1.0" encoding="iso-8859-1"?>
<!-- Generator: Adobe Illustrator 19.0.0, SVG Export Plug-In . SVG Version: 6.00 Build 0)  -->
<svg version="1.1" id="Capa_1" xmlns="http://www.w3.org/2000/svg" xmlns:xlink="http://www.w3.org/1999/xlink" x="0px" y="0px"
	 viewBox="0 0 512 512" style="enable-background:new 0 0 512 512;" xml:space="preserve">
<path style="fill:#57565B;" d="M322.398,334.389l134.231-195.953l-94.932-94.932L165.745,177.735
	c-56.384,35.263-65.317,113.808-18.292,160.832l0,0l3.734,3.734l6.643,6.643l3.734,3.734l0,0
	C208.59,399.706,287.134,390.772,322.398,334.389z"/>
<path style="fill:#4C4B51;" d="M456.628,138.44L322.398,334.39c-19.945,31.89-53.72,48.6-87.809,48.6
	c-22.308,0-44.756-7.159-63.546-21.902c12.685,5.131,26.11,7.646,39.484,7.646c34.81,0,69.305-17.065,89.666-49.613L437.24,119.043
	L456.628,138.44z"/>
<path style="fill:#DDA33C;" d="M458.527,140.375l-98.768-98.768c-3.561-3.561-3.561-9.334,0-12.895l18.543-18.543
	c3.561-3.561,9.334-3.561,12.895,0l98.768,98.768c3.561,3.561,3.561,9.334,0,12.895l-18.543,18.543
	C467.861,143.935,462.087,143.935,458.527,140.375z"/>
<path style="fill:#BC802A;" d="M458.527,140.375l-21.53-21.53l31.439-31.439l21.53,21.53c3.561,3.561,3.561,9.334,0,12.895
	l-18.543,18.543C467.861,143.935,462.087,143.935,458.527,140.375z"/>
<path style="fill:#DDA33C;" d="M261.156,448.793h-70.562V311.196c0-15.624,12.666-28.289,28.289-28.289h13.983
	c15.624,0,28.289,12.666,28.289,28.289V448.793z"/>
<path style="fill:#BC802A;" d="M261.154,311.201v137.596h-20.857V311.201c0-14.459-10.859-26.384-24.853-28.076
	c1.126-0.142,2.271-0.213,3.438-0.213h13.983C248.489,282.91,261.154,295.575,261.154,311.201z"/>
<path style="fill:#57565B;" d="M305.077,504.503H146.673c-3.092,0-5.599-2.507-5.599-5.599v-44.049c0-3.092,2.507-5.599,5.599-5.599
	h158.403c3.092,0,5.599,2.507,5.599,5.599v44.049C310.675,501.996,308.168,504.503,305.077,504.503z"/>
<path style="fill:#4C4B51;" d="M305.077,504.503H286.89v-55.246h18.186c3.092,0,5.599,2.507,5.599,5.599v44.049
	C310.675,501.996,308.168,504.503,305.077,504.503z"/>
<circle style="fill:#E8E8EA;" cx="225.876" cy="324.695" r="14.418"/>
<path style="fill:#D6D6D8;" d="M240.294,324.692c0,7.964-6.455,14.419-14.419,14.419c-6.857,0-12.595-4.785-14.06-11.197
	c2.551,2.281,5.917,3.669,9.608,3.669c7.964,0,14.419-6.455,14.419-14.419c0-1.107-0.124-2.187-0.359-3.222
	C238.436,316.583,240.294,320.42,240.294,324.692z"/>
<path style="fill:#EF503F;" d="M73.865,285.606c-11.218-6.903-26.001-10.66-32.913-12.143c-1.472-0.316-2.856,1.122-2.46,2.575
	c0.07,0.257,0.127,0.505,0.174,0.744c0.556,2.859-2.001,5.556-4.904,5.245c-3.833-0.41-8.427-2.32-11.458-3.764
	c-1.384-0.66-3.053,0.542-2.925,2.106c0.782,9.572,1.537,20.536,1.537,20.536c0.725,13.304,2.484,24.02,6.186,30.366
	c1.339,2.518,3.054,4.868,5.142,6.972c0.006,0.006,0.011,0.012,0.017,0.018c0.003,0.003,0.006,0.006,0.009,0.009
	c0.369,0.38,0.581,0.569,0.581,0.569c12.718,12.11,33.587,10.807,46.456-2.961c12.329-13.191,12.74-33.325,0.915-45.351
	C78.288,288.561,76.148,286.923,73.865,285.606z"/>
<path style="fill:#E54033;" d="M79.306,335.878c-4.352,4.659-9.621,7.888-15.18,9.652c1.987-1.401,3.867-3.03,5.602-4.885
	c12.329-13.193,12.739-33.325,0.916-45.351c-1.935-1.966-4.074-3.604-6.358-4.922c-8.329-5.126-18.626-8.517-26.205-10.53
	c0.555-0.887,0.799-1.963,0.586-3.062c-0.047-0.239-0.105-0.487-0.174-0.742c-0.396-1.454,0.986-2.892,2.46-2.574
	c6.913,1.482,21.694,5.238,32.912,12.143c2.282,1.315,4.422,2.953,6.356,4.92C92.044,302.552,91.637,322.688,79.306,335.878z"/>
<path d="M247.789,324.692c0-12.085-9.831-21.916-21.915-21.916c-12.084,0-21.915,9.831-21.915,21.916
	c0,12.084,9.831,21.915,21.915,21.915C237.958,346.607,247.789,336.776,247.789,324.692z M218.953,324.692
	c0-3.816,3.105-6.922,6.921-6.922s6.921,3.105,6.921,6.922c0,3.815-3.105,6.921-6.921,6.921S218.953,328.508,218.953,324.692z"/>
<path d="M495.267,103.635L396.499,4.866C393.36,1.728,389.188,0,384.75,0c-4.438,0-8.611,1.728-11.749,4.866L354.458,23.41
	c-3.139,3.138-4.867,7.31-4.867,11.749c0,2.313,0.48,4.55,1.374,6.61L161.634,171.464c-28.748,18.033-47.427,47.704-51.264,81.43
	c-3.841,33.777,7.742,66.936,31.78,90.975l3.178,3.178c-18.309,8.185-39.726,5.661-55.702-6.884l-2.467-1.937
	c12.796-16.159,12.34-38.785-1.593-52.956c-2.341-2.38-4.985-4.433-7.861-6.102c-11.968-7.337-27.171-11.313-35.178-13.033
	c-3.274-0.701-6.623,0.347-8.956,2.808c-1.302,1.374-2.146,3.044-2.482,4.813c-1.654-0.536-3.556-1.305-5.559-2.26
	c-3.037-1.446-6.668-1.147-9.475,0.789c-2.838,1.957-4.427,5.289-4.148,8.693c0.741,9.077,1.469,19.555,1.526,20.391
	c0.874,15.971,3.137,26.64,7.118,33.55c1.676,3.121,3.788,5.985,6.316,8.55c0.009,0.009,0.017,0.018,0.025,0.026
	c0.421,0.434,0.725,0.718,0.877,0.856c7.03,6.651,16.277,10.275,26.165,10.274c0.394,0,0.789-0.006,1.184-0.017
	c7.257-0.212,14.396-2.427,20.649-6.266l4.599,3.613c12.498,9.815,27.606,14.825,42.811,14.825c11.412,0,22.878-2.823,33.335-8.554
	c7.969,7.92,16.934,14.47,26.583,19.555v5.209c0,4.141,3.356,7.497,7.497,7.497s7.497-3.356,7.497-7.497v-71.793
	c0-11.465,9.328-20.792,20.793-20.792h13.982c11.465,0,20.793,9.327,20.793,20.792v130.103h-55.569v-12.869
	c0-4.141-3.356-7.497-7.497-7.497s-7.497,3.356-7.497,7.497v13.331h-36.423c-7.222,0-13.097,5.875-13.097,13.097v44.048
	c0,7.222,5.875,13.097,13.097,13.097h158.403c7.222,0,13.097-5.875,13.097-13.097v-44.048c0-7.222-5.875-13.097-13.097-13.097
	h-36.423v-56.614c24.698-7.887,45.919-24.175,60.017-46.648l76.385-111.51c2.34-3.416,1.468-8.082-1.948-10.422
	c-3.416-2.34-8.082-1.468-10.422,1.948l-76.472,111.637c-0.059,0.086-0.116,0.173-0.171,0.262
	c-11.312,18.086-27.954,31.557-47.389,38.869v-58.087c0-19.732-16.054-35.786-35.787-35.786h-13.982
	c-19.733,0-35.787,16.054-35.787,35.786v49.227c-5.794-3.709-11.243-8.057-16.229-13.044l-14.113-14.113
	c-20.789-20.788-30.806-49.465-27.485-78.677c3.323-29.213,19.524-54.907,44.451-70.497c0.089-0.055,0.176-0.112,0.262-0.171
	L360.775,53.224l86.136,86.135l-28.233,41.215c-2.34,3.416-1.468,8.082,1.948,10.422c3.417,2.341,8.082,1.469,10.422-1.948
	l27.325-39.889c2.102,0.908,4.35,1.375,6.603,1.375c4.255,0,8.509-1.619,11.749-4.858l18.543-18.543
	C501.744,120.654,501.744,110.113,495.267,103.635z M73.829,330.758c-5.07,5.426-12.05,8.654-19.148,8.861
	c-6.332,0.206-12.26-2.021-16.66-6.211c-0.065-0.063-0.068-0.066-0.137-0.127c-0.04-0.037-0.118-0.113-0.228-0.226
	c-0.031-0.032-0.062-0.063-0.092-0.094c-1.532-1.545-2.826-3.3-3.845-5.214c-0.046-0.086-0.094-0.172-0.143-0.257
	c-2.713-4.649-4.454-13.732-5.176-26.997c-0.002-0.036-0.005-0.072-0.007-0.108c-0.006-0.077-0.382-5.518-0.874-12.041
	c1.953,0.576,3.77,0.955,5.443,1.134c3.744,0.412,7.519-1.042,10.105-3.856c0.936-1.02,1.676-2.18,2.205-3.42
	c6.941,1.823,16.893,5.008,24.661,9.787c0.061,0.037,0.122,0.073,0.184,0.109c1.739,1.003,3.34,2.242,4.757,3.683
	C83.821,304.88,83.352,320.571,73.829,330.758z M303.179,456.753v40.253H148.571v-40.253H303.179z M484.663,116.53l-18.543,18.543
	c-0.631,0.633-1.661,0.633-2.292,0l-1.687-1.687c-0.074-0.081-0.132-0.173-0.21-0.251l-94.933-94.932
	c-0.078-0.078-0.17-0.135-0.25-0.21l-1.688-1.688c-0.394-0.393-0.476-0.84-0.476-1.146c0-0.306,0.082-0.754,0.476-1.146
	l18.544-18.545c0.393-0.393,0.84-0.475,1.146-0.475s0.754,0.082,1.146,0.476l98.768,98.769
	C485.296,114.869,485.296,115.898,484.663,116.53z"/>
<g>
</g>
<g>
</g>
<g>
</g>
<g>
</g>
<g>
</g>
<g>
</g>
<g>
</g>
<g>
</g>
<g>
</g>
<g>
</g>
<g>
</g>
<g>
</g>
<g>
</g>
<g>
</g>
<g>
</g>
</svg>
