<?xml version="1.0" encoding="utf-8"?>
<!-- Generator: Adobe Illustrator 23.0.6, SVG Export Plug-In . SVG Version: 6.00 Build 0)  -->
<svg version="1.1" id="Слой_1" xmlns="http://www.w3.org/2000/svg" xmlns:xlink="http://www.w3.org/1999/xlink" x="0px" y="0px"
	 viewBox="0 0 571.6 511" style="enable-background:new 0 0 571.6 511;" xml:space="preserve">
<style type="text/css">
	.st0{fill:#B2B2B2;}
	.st1{fill:#CCCCCC;}
	.st2{fill:#3A3A3A;}
	.st3{fill:#1C1C1C;}
	.st4{fill:#774320;}
	.st5{fill:#916643;}
	.st6{fill:#513321;}
	.st7{fill:#845939;}
</style>
<path class="st0" d="M115.1,304.3c-2.2-1.3-3.7-3.7-3.7-6.5c0-4.1,3.4-7.5,7.5-7.5l61.6,0c27.5,0,50-22.4,50-50
	c0-4.1,3.4-7.5,7.5-7.5c4.1,0,7.5,3.3,7.5,7.5c0,35.8-29.1,64.9-64.9,64.9l-61.6,0C117.5,305.3,116.2,305,115.1,304.3z"/>
<path class="st1" d="M536.5,162.9c6.9,0,12.4,5.6,12.4,12.4l0,12.4l-11.9,6.1l-12.9-6.1l0-12.4C524.1,168.4,529.6,162.8,536.5,162.9
	z"/>
<path class="st2" d="M553.9,240.4l-65.7,0l-12.6-7.3L475,199l13.3-11.3l65.6,0c5.5,0,10,4.5,10,9.9l0,32.8
	C563.9,236,559.4,240.4,553.9,240.4z"/>
<path class="st3" d="M563.9,222l-75.6,0l-1.2,0c-1.4,0-2.6-0.4-3.7-1c-2.2-1.3-3.7-3.7-3.7-6.5c0-4.1,3.4-7.5,7.5-7.5l1.2,0l75.6,0
	L563.9,222z"/>
<path class="st2" d="M296.3,240.4l-100.5,0l-14.6-23.6l14.6-29.1l100.5,0l10.3,28.9L296.3,240.4z"/>
<path class="st3" d="M192.1,221.1c-2.2-1.3-3.7-3.7-3.7-6.5c0-4.1,3.4-7.5,7.5-7.5l100,0c4.1,0,7.5,3.4,7.5,7.5
	c0,4.1-3.3,7.5-7.5,7.5l-100,0C194.5,222.1,193.2,221.7,192.1,221.1z"/>
<path class="st4" d="M31.7,187.7l164.1,0l0,52.7L49.8,372.8c-4.6,4.1-10.5,6.4-16.7,6.4l-1.4,0c-13.7,0-24.9-11.1-24.9-24.9l0-141.7
	C6.8,198.9,18,187.7,31.7,187.7z"/>
<path class="st5" d="M460.4,288.2l-136.3,0c-15.4,0-27.8-12.5-27.8-27.9l0-72.6l192,0l0,72.6C488.3,275.7,475.8,288.2,460.4,288.2z"
	/>
<path class="st6" d="M195.8,210.5l0,29.9L49.8,372.8c-4.6,4.1-10.5,6.4-16.7,6.4l-1.4,0c-13.7,0-24.9-11.1-24.9-24.9l0-29.9
	c0,13.7,11.1,24.9,24.9,24.9l1.4,0c6.2,0,12.1-2.3,16.7-6.4L195.8,210.5z"/>
<path class="st7" d="M488.3,240.4l0,20c0,15.4-12.5,27.9-27.9,27.8l-136.3,0c-15.4,0-27.8-12.5-27.8-27.9l0-20
	c0,15.4,12.5,27.9,27.8,27.9l136.3,0C475.8,268.2,488.3,255.8,488.3,240.4z"/>
<path d="M571.6,230.6l0-32.8c0-4.7-1.8-9-5.1-12.3c-2.7-2.7-6.1-4.4-9.8-4.9l0-5.1c0-11-8.9-19.9-19.9-19.9
	c-5.3,0-10.3,2.1-14.1,5.8c-3.8,3.8-5.8,8.8-5.8,14.1l0,5l-78.4,0c-4.1,0-7.5,3.4-7.5,7.5s3.4,7.5,7.5,7.5l42.6,0l0,4.8l0,60.3
	c0,5.4-2.1,10.6-6,14.4c-3.8,3.8-9,6-14.4,6l-5.4,0l0-26.8c0-4.1-3.3-7.5-7.5-7.5c-4.1,0-7.5,3.4-7.5,7.5l0,26.8l-21.8,0l0-26.8
	c0-4.1-3.4-7.5-7.5-7.5c-4.1,0-7.5,3.4-7.5,7.5l0,26.8l-21.8,0l0-26.8c0-4.1-3.4-7.5-7.5-7.5c-4.1,0-7.5,3.3-7.5,7.5l0,26.8l-21.8,0
	l0-26.8c0-4.1-3.4-7.5-7.5-7.5c-4.1,0-7.5,3.3-7.5,7.5l0,26.8l-5.4,0c-11.2,0-20.4-9.1-20.4-20.4l0-19.9c0,0,0,0,0,0l0-45.2l99.4,0
	c4.1,0,7.5-3.3,7.5-7.5c0-4.1-3.3-7.5-7.5-7.5l-288.5,0c-4.1,0-7.5,3.3-7.5,7.5c0,4.1,3.3,7.5,7.5,7.5l73.6,0l0,1.8v40.1L45,367.3
	c-3.2,2.9-7.3,4.5-11.7,4.5l-1.4,0c-4.6,0-9-1.8-12.3-5.1c-3.3-3.3-5.1-7.6-5.1-12.3l0-141.7c0-4.6,1.8-9,5.1-12.3s7.6-5.1,12.3-5.1
	l48.1,0c4.1,0,7.5-3.3,7.5-7.5c0-4.1-3.4-7.5-7.5-7.5l-48.1,0c-8.6,0-16.8,3.4-22.9,9.5c-6.1,6.1-9.5,14.2-9.5,22.9l0,141.7
	c0,8.6,3.4,16.8,9.5,22.9c2,2,4.3,3.8,6.7,5.2c4.9,2.8,10.4,4.3,16.1,4.3l1.4,0c8,0,15.8-3,21.7-8.4l80.5-72.9l45.1,0
	c17.3,0,33.7-6.8,45.9-19c10.5-10.5,16.9-23.9,18.6-38.4l43.9,0l0,12.4c0,9.4,3.7,18.3,10.4,25c2.2,2.2,4.7,4.1,7.4,5.7
	c5.3,3.1,11.3,4.7,17.6,4.7l136.3,0c19.5,0,35.3-15.9,35.3-35.3l0-12.4l58.2,0c4.7,0,9-1.8,12.3-5.1
	C569.8,239.7,571.6,235.3,571.6,230.6z M289,195.3l0,11.9l-85.5,0l0-11.9L289,195.3z M216,275.9c-9.4,9.4-22,14.6-35.3,14.6l-28.6,0
	l46.9-42.5l31.1,0C228.5,258.6,223.6,268.2,216,275.9z M203.5,233.1l0-10.9l85.5,0l0,10.9L203.5,233.1z M533.2,171.9
	c0.9-0.9,2.2-1.5,3.5-1.5c2.7,0,4.9,2.2,4.9,5l0,4.9l-9.9,0l0-4.9C531.8,174.1,532.3,172.8,533.2,171.9z M554.1,195.3
	c0.9,0,1.5,0.4,1.7,0.7c0.3,0.3,0.7,0.9,0.7,1.7l0,9.4l-60.6,0l0-11.9L554.1,195.3z M555.9,232.4c-0.3,0.3-0.9,0.7-1.7,0.7l-58.2,0
	l0-10.9l60.6,0l0,8.4C556.6,231.5,556.1,232.1,555.9,232.4z"/>
</svg>
