<svg id="Capa_1" enable-background="new 0 0 512 512" height="512" viewBox="0 0 512 512" width="512" xmlns="http://www.w3.org/2000/svg"><g><path d="m399 45.12v30.13h-30v-30.13c0-8.33-6.79-15.12-15.12-15.12h-67.76c-8.33 0-15.12 6.79-15.12 15.12v30.13h-30v-30.13c0-8.33-6.79-15.12-15.12-15.12h-67.76c-8.33 0-15.12 6.79-15.12 15.12v30.13h-30v-30.13c0-24.88 20.24-45.12 45.12-45.12h67.76c11.56 0 22.13 4.38 30.12 11.56 7.99-7.18 18.56-11.56 30.12-11.56h67.76c24.88 0 45.12 20.24 45.12 45.12z" fill="#3f3b56"/><path d="m399 45.12v30.13h-30v-30.13c0-8.33-6.79-15.12-15.12-15.12h-67.76c-8.33 0-15.12 6.79-15.12 15.12v30.13h-15v-63.69c7.99-7.18 18.56-11.56 30.12-11.56h67.76c24.88 0 45.12 20.24 45.12 45.12z" fill="#2b203b"/><path d="m331.32 288-11.32 224h-128l-11.34-224 11.34-224h128z" fill="#e86539"/><path d="m64 64h128v448h-128z" fill="#e86539"/><path d="m128 64h64v448h-64z" fill="#b72e1d"/><path d="m331.32 288-11.32 224h-64v-448h64z" fill="#b72e1d"/><path d="m320 64h128v448h-128z" fill="#e86539"/><path d="m384 64h64v448h-64z" fill="#b72e1d"/><path d="m32 121.035h448v64h-448z" fill="#3f3b56"/><path d="m32 390.965h448v64h-448z" fill="#3f3b56"/><path d="m256 121.035h224v64h-224z" fill="#2b203b"/><path d="m256 390.965h224v64h-224z" fill="#2b203b"/><path d="m346.34 287.995c0 49.9-40.44 90.35-90.34 90.35s-90.34-40.45-90.34-90.35c0-49.89 40.44-90.34 90.34-90.34s90.34 40.45 90.34 90.34z" fill="#eae9f5"/><path d="m346.34 287.995c0 49.9-40.44 90.35-90.34 90.35v-180.69c49.9 0 90.34 40.45 90.34 90.34z" fill="#d5d3eb"/><path d="m256 182.655c-58.09 0-105.34 47.26-105.34 105.34 0 58.09 47.25 105.35 105.34 105.35s105.34-47.26 105.34-105.35c0-58.08-47.25-105.34-105.34-105.34zm0 180.69c-41.54 0-75.34-33.8-75.34-75.35 0-41.54 33.8-75.34 75.34-75.34s75.34 33.8 75.34 75.34c0 41.55-33.8 75.35-75.34 75.35z" fill="#67a7ff"/><path d="m361.34 287.995c0 58.09-47.25 105.35-105.34 105.35v-30c41.54 0 75.34-33.8 75.34-75.35 0-41.54-33.8-75.34-75.34-75.34v-30c58.09 0 105.34 47.26 105.34 105.34z" fill="#5669f0"/><g><path d="m304.25 272.995v30h-63.25v-63.21h30v33.21z" fill="#3f3b56"/></g><path d="m304.25 272.995v30h-48.25v-63.21h15v33.21z" fill="#2b203b"/></g></svg>